Coordinates
version=1
nRows=24
nColumns=22
inDegrees=yes

Units are S.I. units (second, meters, Newtons, ...)
If the header above contains a line with 'inDegrees', this indicates whether rotational values are in degrees (yes) or radians (no).

endheader
time	pelvis_tilt	pelvis_list	pelvis_rotation	pelvis_tx	pelvis_ty	pelvis_tz	hip_flexion_r	hip_adduction_r	hip_rotation_r	knee_angle_r	ankle_angle_r	subtalar_angle_r	hip_flexion_l	hip_adduction_l	hip_rotation_l	knee_angle_l	ankle_angle_l	subtalar_angle_l	lumbar_extension	lumbar_bending	lumbar_rotation
      3.95000000	      6.34392036	      8.97675266	     70.40743037	      0.90997477	      0.93864229	      0.07410061	     13.17342244	     -6.40179215	     -7.79353941	    -42.04714939	      6.29191042	      5.04365059	     -8.09536746	      6.85812011	     -1.89114727	    -19.08703768	     22.06341118	    -20.21711399	    -14.92373454	      3.30863699	    -11.58287481
      3.96000000	      6.31169017	      9.23184975	     71.39895116	      0.91343053	      0.93875563	      0.06571807	     13.33327345	     -6.40684564	     -8.55550927	    -39.10793592	      6.21419778	      5.19428397	     -9.19203024	      6.69711379	     -0.99762470	    -18.68379954	     22.26141440	    -20.35363723	    -15.03327548	      3.31349982	    -11.84627025
      3.97000000	      6.22598312	      9.42379700	     72.39236357	      0.91691322	      0.93850329	      0.05731978	     13.51502386	     -6.39753458	     -9.37950561	    -36.13165922	      5.98752593	      5.58970448	    -10.13982013	      6.53356954	     -0.14347616	    -18.40910613	     22.54955424	    -20.35802875	    -15.04971414	      3.28137834	    -12.15656969
      3.98000000	      6.11124819	      9.61118306	     73.35084911	      0.92050777	      0.93801442	      0.04889854	     13.65956711	     -6.34838114	    -10.19367730	    -33.15260649	      5.62067847	      6.25367662	    -11.04476407	      6.37200369	      0.66509981	    -18.19752270	     22.89599658	    -20.23091198	    -15.04940193	      3.19782638	    -12.45491759
      3.99000000	      5.96964578	      9.78051930	     74.27600797	      0.92419058	      0.93727230	      0.04047243	     13.79522759	     -6.24896340	    -10.94774344	    -30.21664421	      5.13911182	      7.15647482	    -11.88096257	      6.21124613	      1.43857209	    -18.07266858	     23.30690945	    -19.95986289	    -15.02593113	      3.07556379	    -12.73346382
      4.00000000	      5.80124962	      9.91203466	     75.16309088	      0.92799100	      0.93626128	      0.03206215	     13.95802381	     -6.09130061	    -11.57644583	    -27.36876349	      4.56080245	      8.29773018	    -12.63045503	      6.04594607	      2.15840493	    -18.02590124	     23.79703148	    -19.56976254	    -14.96139169	      2.91244088	    -12.99910069
      4.01000000	      5.62833167	     10.01293166	     76.04264909	      0.93183400	      0.93501660	      0.02371645	     14.11810282	     -5.86324435	    -12.04510060	    -24.60392650	      4.01561013	      9.48636596	    -13.27802929	      5.85571470	      2.85860274	    -18.10706839	     24.32515965	    -19.13232961	    -14.88447304	      2.73954969	    -13.26517771
      4.02000000	      5.44088077	     10.05891622	     76.91278845	      0.93569206	      0.93350194	      0.01548557	     14.31840675	     -5.58440915	    -12.28986969	    -21.95833939	      3.47029469	     10.77288077	    -13.78601276	      5.65204326	      3.53203021	    -18.32472603	     24.93027518	    -18.67098769	    -14.77525481	      2.55345602	    -13.52953354
      4.03000000	      5.26254372	     10.06353161	     77.79431912	      0.93951875	      0.93177954	      0.00733491	     14.51269468	     -5.25702670	    -12.31477607	    -19.41851773	      3.02386169	     11.98655798	    -14.18086303	      5.41236115	      4.17391231	    -18.66615001	     25.56723049	    -18.23831912	    -14.65130012	      2.38588630	    -13.83366518
      4.04000000	      5.09387729	     10.02820464	     78.68423464	      0.94328304	      0.92986672	     -0.00073125	     14.70549442	     -4.90675204	    -12.11698803	    -17.01373063	      2.65671938	     13.08749983	    -14.46267136	      5.14566127	      4.79261091	    -19.13263441	     26.24322934	    -17.83942589	    -14.51788555	      2.23984880	    -14.16504089
      4.05000000	      4.94335064	      9.97637400	     79.57982922	      0.94697889	      0.92783442	     -0.00876795	     14.86641220	     -4.55314629	    -11.74790098	    -14.76683779	      2.37750936	     13.94182336	    -14.66975664	      4.85024735	      5.36000302	    -19.70628580	     26.93086302	    -17.49777748	    -14.39539756	      2.12444648	    -14.54938569
      4.06000000	      4.81225226	      9.92072353	     80.44350806	      0.95064431	      0.92573374	     -0.01682558	     15.00297165	     -4.20765384	    -11.23810665	    -12.73577601	      2.18948834	     14.62197990	    -14.85239476	      4.54699601	      5.91882859	    -20.32795196	     27.60900986	    -17.16802082	    -14.29215209	      2.03378543	    -14.90172784
      4.07000000	      4.70249514	      9.88008593	     81.27890937	      0.95428967	      0.92362609	     -0.02496541	     15.11008452	     -3.88300007	    -10.69957406	    -10.98013545	      2.07060113	     14.97984319	    -15.03685909	      4.22891864	      6.41592099	    -20.99056005	     28.26799793	    -16.88271689	    -14.21744345	      1.97042436	    -15.26817762
      4.08000000	      4.60392962	      9.85450807	     82.07738606	      0.95790132	      0.92153186	     -0.03321915	     15.21940250	     -3.59261988	    -10.20939806	     -9.57494169	      2.02741023	     15.03022092	    -15.23730490	      3.91409692	      6.87802879	    -21.66895741	     28.90469980	    -16.68643088	    -14.16398715	      1.92643718	    -15.62825633
      4.09000000	      4.53953399	      9.86270605	     82.82273572	      0.96153358	      0.91951662	     -0.04157848	     15.31424347	     -3.29920036	     -9.80114880	     -8.54107349	      2.04391423	     14.98145319	    -15.47524053	      3.57227846	      7.24559738	    -22.36395418	     29.47248348	    -16.44045517	    -14.15685385	      1.92043371	    -15.97139526
      4.10000000	      4.49918670	      9.89275243	     83.52259650	      0.96515170	      0.91758042	     -0.05011017	     15.41721785	     -3.00910188	     -9.49971774	     -7.91081165	      2.12151145	     14.78139017	    -15.75335475	      3.21549005	      7.56485487	    -23.05224463	     29.98074674	    -16.17142816	    -14.15862148	      1.94554406	    -16.27836617
      4.11000000	      4.46995104	      9.95215211	     84.17882268	      0.96879471	      0.91575200	     -0.05876958	     15.52089366	     -2.72223979	     -9.27051773	     -7.67292582	      2.25865808	     14.18545582	    -16.05891110	      2.84158335	      7.76380920	    -23.75572477	     30.34776511	    -15.71404110	    -14.18395867	      1.97986881	    -16.58763368
      4.12000000	      4.46073466	     10.02460646	     84.79440739	      0.97244920	      0.91404605	     -0.06762203	     15.61017976	     -2.41891599	     -9.06318727	     -7.76330185	      2.39643889	     13.57072997	    -16.40823509	      2.45444676	      7.96182816	    -24.42557248	     30.66314395	    -15.34240772	    -14.20076135	      2.03526299	    -16.83550285
      4.13000000	      4.48377776	     10.12314369	     85.37681707	      0.97611065	      0.91250512	     -0.07668336	     15.65464196	     -2.08428429	     -8.84702556	     -8.13357228	      2.47823037	     12.86611437	    -16.80507342	      2.03036864	      8.11549538	    -25.08082950	     30.88339521	    -14.94026960	    -14.22011753	      2.12390683	    -17.02456604
      4.14000000	      4.52260902	     10.23276121	     85.91722053	      0.97985901	      0.91114337	     -0.08599567	     15.65173508	     -1.71511517	     -8.50486946	     -8.71387045	      2.46323450	     11.99812407	    -17.25292481	      1.57944698	      8.20895435	    -25.67688734	     30.96900495	    -14.45831453	    -14.21087652	      2.21900355	    -17.21036199
      4.15000000	      4.59384154	     10.34772986	     86.43660048	      0.98365196	      0.90996918	     -0.09556200	     15.60022758	     -1.29890282	     -8.08184815	     -9.45545403	      2.29279276	     11.06391730	    -17.72521206	      1.08204478	      8.26752483	    -26.25509471	     30.94040289	    -13.93491531	    -14.17098412	      2.34402686	    -17.34927021
      4.16000000	      4.70471104	     10.45779304	     86.93693949	      0.98752042	      0.90898353	     -0.10537216	     15.50909528	     -0.82326880	     -7.56164013	    -10.30334868	      1.90534902	     10.07453628	    -18.19836773	      0.52472476	      8.27531657	    -26.83347810	     30.80006895	    -13.36333831	    -14.08902974	      2.50448914	    -17.46462214
      4.17000000	      4.85620553	     10.54553782	     87.42343183	      0.99147697	      0.90819259	     -0.11542717	     15.40997680	     -0.29055850	     -6.98914960	    -11.23344171	      1.29214030	      9.01001680	    -18.64452095	     -0.09571603	      8.24512539	    -27.41979951	     30.45681524	    -12.71073295	    -13.94314911	      2.69667006	    -17.55147329
      4.18000000	      5.04811231	     10.61146825	     87.90358065	      0.99550420	      0.90759972	     -0.12568406	     15.30362661	      0.29255101	     -6.36535087	    -12.19665636	      0.43895274	      7.97326074	    -19.04053463	     -0.77786490	      8.19111123	    -28.04869500	     29.97355596	    -11.99262915	    -13.74159038	      2.92491792	    -17.62889296
